<svg xmlns="http://www.w3.org/2000/svg" shape-rendering="crispEdges" viewBox="23.5 31.5 101 68">
    <metadata>Made with Pixels to Svg https://codepen.io/shshaw/pen/XbxvNj</metadata>
    <path stroke="#101010" d="M24 32h100M24 33h100M24 34h100M24 35h100M24 36h4M120 36h4M24 37h4M120 37h4M24 38h4M120 38h4M24 39h4M120 39h4M24 40h4M120 40h4M24 41h4M120 41h4M24 42h4M120 42h4M24 43h4M120 43h4M24 44h4M120 44h4M24 45h4M120 45h4M24 46h4M120 46h4M24 47h4M120 47h4M24 48h4M120 48h4M24 49h4M120 49h4M24 50h4M120 50h4M24 51h4M120 51h4M24 52h4M120 52h4M24 53h4M120 53h4M24 54h4M120 54h4M24 55h4M120 55h4M24 56h4M120 56h4M24 57h4M120 57h4M24 58h4M120 58h4M24 59h4M120 59h4M24 60h4M120 60h4M24 61h4M120 61h4M24 62h4M120 62h4M24 63h4M120 63h4M24 64h4M120 64h4M24 65h4M120 65h4M24 66h4M120 66h4M24 67h4M120 67h4M24 68h4M120 68h4M24 69h4M120 69h4M24 70h4M120 70h4M24 71h4M120 71h4M24 72h4M120 72h4M24 73h4M120 73h4M24 74h4M120 74h4M24 75h4M120 75h4M24 76h4M120 76h4M24 77h4M120 77h4M24 78h4M120 78h4M24 79h4M120 79h4M24 80h4M120 80h4M24 81h4M120 81h4M24 82h4M120 82h4M24 83h4M120 83h4M24 84h4M120 84h4M24 85h4M120 85h4M24 86h4M120 86h4M24 87h4M120 87h4M24 88h4M120 88h4M24 89h4M120 89h4M24 90h4M120 90h4M24 91h4M120 91h4M24 92h4M120 92h4M24 93h4M120 93h4M24 94h4M120 94h4M24 95h4M120 95h4M24 96h100M24 97h100M24 98h100M24 99h100"/>
    <path stroke="#7e75e6" d="M28 36h92M28 37h92M28 38h92M28 39h92M28 40h36M80 40h40M28 41h36M80 41h40M28 42h36M80 42h40M28 43h36M80 43h40M28 44h24M92 44h28M28 45h24M92 45h28M28 46h24M92 46h28M28 47h24M92 47h28M28 48h20M96 48h24M28 49h20M96 49h24M28 50h20M96 50h24M28 51h20M96 51h24M28 52h16M100 52h20M28 53h16M100 53h20M28 54h16M100 54h20M28 55h16M100 55h20M28 56h16M100 56h20M28 57h16M100 57h20M28 58h16M100 58h20M28 59h16M100 59h20M28 60h12M104 60h16M28 61h12M104 61h16M28 62h12M104 62h16M28 63h12M104 63h16M28 64h12M104 64h16M28 65h12M104 65h16M28 66h12M104 66h16M28 67h12M104 67h16M28 68h12M104 68h16M28 69h12M104 69h16M28 70h12M104 70h16M28 71h12M104 71h16M28 72h16M100 72h20M28 73h16M100 73h20M28 74h16M100 74h20M28 75h16M100 75h20M28 76h20M96 76h24M28 77h20M96 77h24M28 78h20M96 78h24M28 79h20M96 79h24M28 80h24M92 80h28M28 81h24M92 81h28M28 82h24M92 82h28M28 83h24M92 83h28M28 84h36M68 84h8M80 84h40M28 85h36M68 85h8M80 85h40M28 86h36M68 86h8M80 86h40M28 87h36M68 87h8M80 87h40M28 88h32M68 88h8M84 88h36M28 89h32M68 89h8M84 89h36M28 90h32M68 90h8M84 90h36M28 91h32M68 91h8M84 91h36M28 92h92M28 93h92M28 94h92M28 95h92"/>
    <path stroke="#000000" d="M64 40h16M64 41h16M64 42h16M64 43h16M52 44h12M80 44h12M52 45h12M80 45h12M52 46h12M80 46h12M52 47h12M80 47h12M48 48h4M92 48h4M48 49h4M92 49h4M48 50h4M92 50h4M48 51h4M92 51h4M44 52h4M96 52h4M44 53h4M96 53h4M44 54h4M96 54h4M44 55h4M96 55h4M44 56h4M96 56h4M44 57h4M96 57h4M44 58h4M96 58h4M44 59h4M96 59h4M40 60h4M52 60h12M80 60h12M100 60h4M40 61h4M52 61h12M80 61h12M100 61h4M40 62h4M52 62h12M80 62h12M100 62h4M40 63h4M52 63h12M80 63h12M100 63h4M40 64h4M100 64h4M40 65h4M100 65h4M40 66h4M100 66h4M40 67h4M100 67h4M40 68h4M100 68h4M40 69h4M100 69h4M40 70h4M100 70h4M40 71h4M100 71h4M44 72h4M68 72h8M96 72h4M44 73h4M68 73h8M96 73h4M44 74h4M68 74h8M96 74h4M44 75h4M68 75h8M96 75h4M48 76h4M92 76h4M48 77h4M92 77h4M48 78h4M92 78h4M48 79h4M92 79h4M52 80h40M52 81h40M52 82h40M52 83h40M64 84h4M76 84h4M64 85h4M76 85h4M64 86h4M76 86h4M64 87h4M76 87h4M60 88h8M76 88h8M60 89h8M76 89h8M60 90h8M76 90h8M60 91h8M76 91h8"/>
    <path stroke="#7bef71" d="M64 44h16M64 45h16M64 46h16M64 47h16M52 48h40M52 49h40M52 50h40M52 51h40M72 52h4M72 53h4M72 54h4M72 55h4M44 64h56M44 65h56M44 66h56M44 67h56M44 68h56M44 69h56M44 70h56M44 71h56M48 72h20M76 72h20M48 73h20M76 73h20M48 74h20M76 74h20M48 75h20M76 75h20"/>
    <path stroke="#2e5312" d="M48 52h24M76 52h20M48 53h24M76 53h20M48 54h24M76 54h20M48 55h24M76 55h20M48 56h48M48 57h48M48 58h48M48 59h48M44 60h8M64 60h16M92 60h8M44 61h8M64 61h16M92 61h8M44 62h8M64 62h16M92 62h8M44 63h8M64 63h16M92 63h8M52 76h40M52 77h40M52 78h40M52 79h40"/>
</svg>