<svg xmlns="http://www.w3.org/2000/svg" viewBox="0 -0.5 128 128" shape-rendering="crispEdges">
    <metadata>Made with Pixels to Svg https://codepen.io/shshaw/pen/XbxvNj</metadata>
    <path stroke="#000000" d="M48 40h16M48 41h16M48 42h16M48 43h16M36 44h12M64 44h12M36 45h12M64 45h12M36 46h12M64 46h12M36 47h12M64 47h12M32 48h4M76 48h4M32 49h4M76 49h4M32 50h4M76 50h4M32 51h4M76 51h4M28 52h4M80 52h4M28 53h4M80 53h4M28 54h4M80 54h4M28 55h4M80 55h4M28 56h4M80 56h4M28 57h4M80 57h4M28 58h4M46 58h4M65 58h4M80 58h4M28 59h4M45 59h1M49 59h2M64 59h1M68 59h2M80 59h4M24 60h4M44 60h1M47 60h1M50 60h1M63 60h1M66 60h1M69 60h1M84 60h4M24 61h4M44 61h2M48 61h1M50 61h1M63 61h2M67 61h1M69 61h1M84 61h4M24 62h4M41 62h1M44 62h7M60 62h1M63 62h7M84 62h4M24 63h4M41 63h1M45 63h5M53 63h1M60 63h1M64 63h5M72 63h1M84 63h4M24 64h4M47 64h1M53 64h1M66 64h1M72 64h1M84 64h4M24 65h4M84 65h4M24 66h4M84 66h4M24 67h4M84 67h4M24 68h4M84 68h4M24 69h4M84 69h4M24 70h4M47 70h18M84 70h4M24 71h4M47 71h18M84 71h4M28 72h4M47 72h2M63 72h2M80 72h4M28 73h4M47 73h2M63 73h2M80 73h4M28 74h4M47 74h2M63 74h2M80 74h4M28 75h4M47 75h2M63 75h2M80 75h4M32 76h4M47 76h2M63 76h2M76 76h4M32 77h4M47 77h18M76 77h4M32 78h4M47 78h18M76 78h4M32 79h4M76 79h4M36 80h40M36 81h40M36 82h40M36 83h40M48 84h4M60 84h4M48 85h4M60 85h4M48 86h4M60 86h4M48 87h4M60 87h4M41 88h11M60 88h11M41 89h11M60 89h11M41 90h11M60 90h11M41 91h11M60 91h11" />
    <path stroke="#8c00ff" d="M48 44h16M48 45h16M48 46h16M48 47h16M36 48h40M36 49h40M36 50h40M36 51h40M32 52h48M32 53h48M32 54h48M32 55h48M32 56h13M51 56h13M70 56h10M32 57h10M52 57h9M71 57h9M32 58h10M53 58h8M72 58h8M32 59h9M53 59h7M72 59h8M28 60h13M54 60h6M73 60h11M28 61h13M54 61h6M73 61h11M28 62h13M54 62h6M73 62h11M28 63h13M54 63h6M73 63h11M28 64h13M54 64h6M73 64h11M28 65h56M28 66h56M28 67h56M28 68h56M28 69h56M28 70h19M65 70h19M28 71h19M65 71h19M32 72h15M65 72h15M32 73h15M65 73h15M32 74h15M65 74h15M32 75h15M65 75h15M36 76h11M65 76h11M36 77h11M65 77h11M36 78h11M65 78h11M36 79h40" />
    <path stroke="#010000" d="M45 56h6M64 56h6M42 57h3M51 57h1M61 57h3M70 57h1M42 58h1M52 58h1M61 58h1M71 58h1M41 59h2M46 59h2M52 59h1M60 59h2M65 59h2M71 59h1M41 60h1M45 60h2M48 60h1M52 60h2M60 60h1M64 60h2M67 60h1M71 60h2M41 61h1M46 61h2M49 61h1M53 61h1M60 61h1M65 61h2M68 61h1M72 61h1M53 62h1M72 62h1M41 64h6M48 64h5M60 64h6M67 64h5" />
    <path stroke="#5fe8a6" d="M45 57h6M64 57h6M43 58h3M50 58h2M62 58h3M69 58h2M43 59h2M51 59h1M62 59h2M70 59h1M42 60h2M51 60h1M61 60h2M70 60h1M42 61h1M51 61h2M61 61h1M70 61h2M42 62h2M51 62h2M61 62h2M70 62h2M42 63h3M50 63h3M61 63h3M69 63h3" />
    <path stroke="#ffffff" d="M48 59h1M67 59h1M49 60h1M68 60h1" />
    <path stroke="#9dffd0" d="M43 61h1M62 61h1" />
    <path stroke="#f45151" d="M49 72h1M49 73h1M49 74h3M61 74h1M49 75h4M60 75h3M49 76h6M59 76h4" />
    <path stroke="#ff4040" d="M50 72h13M50 73h13M52 74h9M62 74h1M53 75h7M55 76h4" />
</svg>